<svg width="150" height="150" viewBox="0 0 150 150" fill="none" xmlns="http://www.w3.org/2000/svg">
<path d="M0 51C0 26.1472 20.1472 6.00003 45 6.00003H99C123.853 6.00003 144 26.1472 144 51V105C144 129.853 123.853 150 99 150H45C20.1472 150 0 129.853 0 105V51Z" fill="black"/>
<path d="M12 45C12 20.1472 32.1472 0 57 0H105C129.853 0 150 20.1472 150 45V96C150 120.853 129.853 141 105 141H57C32.1472 141 12 120.853 12 96V45Z" fill="#FF0090"/>
<path d="M90.825 56.85L86.1 58.875L75.45 43.5H69.15V88.425L77.625 90.525L74.925 96H47.25V91.2L54.3 85.65V43.5H48.15L37.5 58.875L32.85 56.85V35.7L38.625 37.05H84.975L90.825 35.7V56.85Z" fill="white"/>
<path d="M116.174 88.215C115.184 88.845 114.134 89.31 113.024 89.61C111.914 89.88 110.834 90.015 109.784 90.015C108.764 90.015 107.865 89.91 107.085 89.7C106.755 90.48 106.439 91.065 106.139 91.455C106.379 91.815 108.899 91.995 113.699 91.995C116.699 91.995 118.814 92.46 120.044 93.39C120.614 93.78 121.109 94.395 121.529 95.235C121.979 96.075 122.204 97.155 122.204 98.475C122.204 99.825 121.544 101.175 120.224 102.525C118.904 103.875 117.254 104.94 115.274 105.72C113.295 106.5 111.329 106.89 109.379 106.89C106.139 106.89 103.514 106.245 101.505 104.955C99.4945 103.695 98.4895 102.12 98.4895 100.23C98.4895 99.87 99.0145 98.985 100.065 97.575C101.115 96.195 101.805 95.4 102.135 95.19C101.835 95.04 101.31 94.545 100.56 93.705C99.8095 92.835 99.3895 92.22 99.2995 91.86C99.6895 90.78 100.89 89.43 102.9 87.81C100.56 86.4 99.3895 84.03 99.3895 80.7C99.3895 78.06 100.29 76.05 102.09 74.67C103.92 73.29 106.319 72.6 109.289 72.6C112.289 72.6 114.554 73.005 116.084 73.815C118.634 73.365 120.434 73.14 121.484 73.14C122.564 73.14 123.269 73.155 123.599 73.185C123.599 73.905 123.419 74.73 123.059 75.66C122.729 76.56 122.414 77.19 122.114 77.55L118.244 76.65C118.994 77.73 119.369 79.125 119.369 80.835C119.369 82.545 119.084 84.045 118.514 85.335C117.944 86.595 117.164 87.555 116.174 88.215ZM115.949 101.085C116.159 100.515 116.264 99.855 116.264 99.105C116.264 98.355 115.934 97.8 115.274 97.44C114.615 97.11 113.834 96.945 112.934 96.945C109.424 96.945 107.1 96.915 105.96 96.855C105.72 97.365 105.42 98.085 105.06 99.015C104.7 99.975 104.519 100.545 104.519 100.725C104.519 100.905 104.64 101.16 104.88 101.49C105.12 101.85 105.629 102.225 106.409 102.615C107.219 103.005 108.195 103.2 109.335 103.2C110.505 103.2 111.869 102.93 113.429 102.39C114.989 101.85 115.829 101.415 115.949 101.085ZM112.304 77.19C111.614 76.38 110.639 75.975 109.379 75.975C108.119 75.975 107.129 76.38 106.409 77.19C105.719 78 105.374 79.185 105.374 80.745C105.374 82.275 105.735 83.475 106.455 84.345C107.175 85.215 108.149 85.65 109.379 85.65C112.049 85.65 113.384 84 113.384 80.7C113.384 79.17 113.024 78 112.304 77.19Z" fill="#FFFDFD"/>
<path d="M87.8401 96.54L86.8501 96.495C86.6701 96.165 86.4301 95.55 86.1301 94.65C85.8301 93.75 85.6651 93.075 85.6351 92.625C85.4851 89.655 85.3201 84.51 85.1401 77.19H81.9901L82.1251 74.625C82.8151 74.145 83.6401 73.71 84.6001 73.32L88.2451 67.56C89.4151 67.68 90.3301 67.995 90.9901 68.505L90.9451 72.78C92.8351 72.84 94.5901 73.02 96.2101 73.32C96.2101 74.52 95.835 75.81 95.085 77.19H90.9001C90.7801 83.49 90.7051 88.215 90.6751 91.365C91.8751 91.485 93.5101 91.83 95.58 92.4L95.5351 94.74C95.0251 95.07 93.8851 95.46 92.1151 95.91C90.3751 96.33 88.9501 96.54 87.8401 96.54Z" fill="#FFFDFD"/>
</svg>
